<svg width="125" height="125" viewBox="0 0 125 125" fill="none" xmlns="http://www.w3.org/2000/svg">
<rect width="125" height="125" rx="2" fill="url(#paint0_linear)"/>
<rect x="12" y="12" width="101" height="101" fill="white"/>
<path d="M29 34C29 33.4477 29.4477 33 30 33H96.2715C97.0405 33 97.5217 33.8318 97.1384 34.4985L91.3884 44.4985C91.21 44.8087 90.8794 45 90.5215 45H30C29.4477 45 29 44.5523 29 44V34Z" fill="#2D3748"/>
<path d="M47 58C47 57.4477 47.4477 57 48 57H77C77.5523 57 78 57.4477 78 58V67C78 67.5523 77.5523 68 77 68H48C47.4477 68 47 67.5523 47 67V58Z" fill="#2D3748"/>
<path d="M29 58C29 57.4477 29.4477 57 30 57H40C40.5523 57 41 57.4477 41 58V67C41 67.5523 40.5523 68 40 68H30C29.4477 68 29 67.5523 29 67V58Z" fill="#2D3748"/>
<path d="M29 81C29 80.4477 29.4477 80 30 80H61C61.5523 80 62 80.4477 62 81V91C62 91.5523 61.5523 92 61 92H30C29.4477 92 29 91.5523 29 91V81Z" fill="#2D3748"/>
<path d="M29 81C29 80.4477 29.4477 80 30 80H61C61.5523 80 62 80.4477 62 81V91C62 91.5523 61.5523 92 61 92H30C29.4477 92 29 91.5523 29 91V81Z" fill="#2D3748"/>
<defs>
<linearGradient id="paint0_linear" x1="62.5" y1="0" x2="62.5" y2="125" gradientUnits="userSpaceOnUse">
<stop stop-color="#2D3748"/>
<stop offset="1" stop-color="#CBD5E0"/>
</linearGradient>
</defs>
</svg>
